<svg width="120" height="120" viewBox="0 0 120 120" fill="none" xmlns="http://www.w3.org/2000/svg">
  <!-- Background circle with gradient -->
  <defs>
    <linearGradient id="bgGradient" x1="0%" y1="0%" x2="100%" y2="100%">
      <stop offset="0%" style="stop-color:#667eea;stop-opacity:1" />
      <stop offset="100%" style="stop-color:#764ba2;stop-opacity:1" />
    </linearGradient>
    <linearGradient id="noteGradient" x1="0%" y1="0%" x2="100%" y2="100%">
      <stop offset="0%" style="stop-color:#f093fb;stop-opacity:1" />
      <stop offset="100%" style="stop-color:#f5576c;stop-opacity:1" />
    </linearGradient>
  </defs>
  
  <!-- Main circle background -->
  <circle cx="60" cy="60" r="55" fill="url(#bgGradient)" stroke="#fff" stroke-width="2"/>
  
  <!-- Musical notes -->
  <g transform="translate(30, 25)">
    <!-- Note 1 -->
    <ellipse cx="15" cy="35" rx="8" ry="12" fill="url(#noteGradient)"/>
    <rect x="20" y="15" width="3" height="25" fill="url(#noteGradient)"/>
    <path d="M23 15 Q35 10 35 20 Q35 30 23 25" stroke="url(#noteGradient)" stroke-width="2" fill="none"/>
    
    <!-- Note 2 -->
    <ellipse cx="45" cy="30" rx="8" ry="12" fill="url(#noteGradient)"/>
    <rect x="50" y="10" width="3" height="25" fill="url(#noteGradient)"/>
    <path d="M53 10 Q65 5 65 15 Q65 25 53 20" stroke="url(#noteGradient)" stroke-width="2" fill="none"/>
    
    <!-- Note 3 -->
    <ellipse cx="75" cy="40" rx="8" ry="12" fill="url(#noteGradient)"/>
    <rect x="80" y="20" width="3" height="25" fill="url(#noteGradient)"/>
    <path d="M83 20 Q95 15 95 25 Q95 35 83 30" stroke="url(#noteGradient)" stroke-width="2" fill="none"/>
  </g>
  
  <!-- Decorative waves -->
  <path d="M20 80 Q30 70 40 80 Q50 90 60 80 Q70 70 80 80 Q90 90 100 80" stroke="#fff" stroke-width="2" fill="none" opacity="0.7"/>
  <path d="M25 85 Q35 75 45 85 Q55 95 65 85 Q75 75 85 85 Q95 95 105 85" stroke="#fff" stroke-width="1.5" fill="none" opacity="0.5"/>
  
  <!-- Center text -->
  <text x="60" y="105" text-anchor="middle" fill="#fff" font-family="Arial, sans-serif" font-size="12" font-weight="bold">RagaRhythm</text>
</svg>
